<svg width="22" height="14" viewBox="0 0 22 14" fill="none" xmlns="http://www.w3.org/2000/svg">
<path fill-rule="evenodd" clip-rule="evenodd" d="M22 7C22 7 17.0752 14 11 14C4.92489 14 0 7 0 7C0 7 4.92489 0 11 0C17.0752 0 22 7 22 7ZM16.0205 7C16.0205 9.81275 13.7728 12.093 11 12.093C8.22721 12.093 5.9795 9.81275 5.9795 7C5.9795 4.18725 8.22721 1.90702 11 1.90702C13.7728 1.90702 16.0205 4.18725 16.0205 7ZM11 9.91842C12.5889 9.91842 13.8769 8.61178 13.8769 7C13.8769 5.38822 12.5889 4.08158 11 4.08158C9.41109 4.08158 8.12308 5.38822 8.12308 7C8.12308 8.61178 9.41109 9.91842 11 9.91842Z" fill="black"/>
</svg>
