<svg xmlns="http://www.w3.org/2000/svg" viewBox="0 0 536.49 129.64"><g id="Layer_1" data-name="Layer 1"><rect width="536.49" height="129.64" rx="64.82" fill="#fff"/><path d="M891.41,598.09H758.35a58.09,58.09,0,0,1,0-116.18H891.41" transform="translate(-691.75 -475.18)" fill="none" stroke="#231f20" stroke-miterlimit="10" stroke-width="1.86"/><path d="M1028.59,481.91h133.06a58.09,58.09,0,0,1,0,116.18H1028.59" transform="translate(-691.75 -475.18)" fill="none" stroke="#231f20" stroke-miterlimit="10" stroke-width="1.86"/><path d="M913.22,486.46l-2.05-8.08h1.11l1,4.09c.24,1,.45,2,.6,2.79h0c.13-.8.38-1.76.66-2.81l1.08-4.07h1.09l1,4.1c.23,1,.45,1.92.57,2.77h0c.17-.89.4-1.79.65-2.8l1.07-4.07H921l-2.29,8.08h-1.09l-1-4.21a25.11,25.11,0,0,1-.53-2.64h0a23.65,23.65,0,0,1-.62,2.64l-1.15,4.21Z" transform="translate(-691.75 -475.18)"/><path d="M926.24,482.67H923.1v2.91h3.5v.88h-4.54v-8.08h4.36v.87H923.1v2.56h3.14Z" transform="translate(-691.75 -475.18)"/><path d="M930.5,478.48a10.82,10.82,0,0,1,1.91-.16,3.37,3.37,0,0,1,2.22.58,1.72,1.72,0,0,1,.67,1.43,1.92,1.92,0,0,1-1.37,1.78v0a2.08,2.08,0,0,1,1.67,2,2.19,2.19,0,0,1-.68,1.62,4.12,4.12,0,0,1-2.8.75,14.11,14.11,0,0,1-1.62-.09Zm1,3.31h1c1.1,0,1.75-.57,1.75-1.35,0-.95-.72-1.32-1.78-1.32a5,5,0,0,0-.92.07Zm0,3.88a6.25,6.25,0,0,0,.87.05c1.08,0,2.08-.4,2.08-1.57s-1-1.56-2.09-1.56h-.86Z" transform="translate(-691.75 -475.18)"/><path d="M941.19,482.67h-3.14v2.91h3.5v.88H937v-8.08h4.36v.87h-3.32v2.56h3.14Z" transform="translate(-691.75 -475.18)"/><path d="M942.91,478.38H944v7.2h3.45v.88h-4.5Z" transform="translate(-691.75 -475.18)"/><path d="M949.62,478.38v8.08h-1v-8.08Z" transform="translate(-691.75 -475.18)"/><path d="M955.63,482.67h-3.14v2.91H956v.88h-4.55v-8.08h4.37v.87h-3.32v2.56h3.14Z" transform="translate(-691.75 -475.18)"/><path d="M959.23,486.46l-2.64-8.08h1.13l1.26,4c.35,1.09.65,2.07.86,3h0c.22-.94.56-1.95.92-3l1.37-4h1.11l-2.89,8.08Z" transform="translate(-691.75 -475.18)"/><path d="M968.34,482.67H965.2v2.91h3.5v.88h-4.55v-8.08h4.37v.87H965.2v2.56h3.14Z" transform="translate(-691.75 -475.18)"/><path d="M973.64,478.38v8.08h-1v-8.08Z" transform="translate(-691.75 -475.18)"/><path d="M975.47,486.46v-8.08h1.14l2.59,4.09a23.75,23.75,0,0,1,1.45,2.62h0c-.09-1.08-.12-2.06-.12-3.32v-3.38h1v8.08h-1.06l-2.57-4.1a26.34,26.34,0,0,1-1.51-2.7h0c.06,1,.08,2,.08,3.34v3.45Z" transform="translate(-691.75 -475.18)"/><path d="M992.06,486.1a7.5,7.5,0,0,1-2.48.44,3.79,3.79,0,0,1-4.15-4.07,4.06,4.06,0,0,1,4.38-4.18,5.15,5.15,0,0,1,2,.37l-.25.86a4.06,4.06,0,0,0-1.79-.35,3,3,0,0,0-3.25,3.25,3,3,0,0,0,3.12,3.26,3.39,3.39,0,0,0,1.39-.22v-2.41H989.4v-.84h2.66Z" transform="translate(-691.75 -475.18)"/><path d="M1000.57,482.33c0,2.79-1.69,4.26-3.76,4.26s-3.63-1.65-3.63-4.1,1.6-4.25,3.75-4.25S1000.57,479.94,1000.57,482.33Zm-6.28.14c0,1.72.94,3.27,2.58,3.27s2.59-1.52,2.59-3.36c0-1.61-.84-3.28-2.57-3.28S994.29,480.69,994.29,482.47Z" transform="translate(-691.75 -475.18)"/><path d="M1001.93,478.48a15.81,15.81,0,0,1,2.22-.16,4.62,4.62,0,0,1,3.27,1,3.74,3.74,0,0,1,1.14,2.91,4.3,4.3,0,0,1-1.16,3.14,5,5,0,0,1-3.58,1.16,17,17,0,0,1-1.89-.09Zm1,7.15a6.38,6.38,0,0,0,1.06.06,3.11,3.11,0,0,0,3.44-3.43c0-1.9-1.07-3.12-3.28-3.12a5.89,5.89,0,0,0-1.22.11Z" transform="translate(-691.75 -475.18)"/><path d="M907.73,593.7v8.08h-1.05V593.7Z" transform="translate(-691.75 -475.18)"/><path d="M909.55,601.78V593.7h1.14l2.59,4.09a21.44,21.44,0,0,1,1.45,2.62h0c-.1-1.08-.12-2.06-.12-3.32V593.7h1v8.08h-1l-2.57-4.1a27.44,27.44,0,0,1-1.51-2.7h0c.06,1,.09,2,.09,3.34v3.45Z" transform="translate(-691.75 -475.18)"/><path d="M921,594.58h-2.45v-.88h6v.88h-2.47v7.2H921Z" transform="translate(-691.75 -475.18)"/><path d="M926.51,593.7v3.38h3.91V593.7h1.05v8.08h-1.05V598h-3.91v3.79h-1V593.7Z" transform="translate(-691.75 -475.18)"/><path d="M937.47,598h-3.14v2.91h3.5v.88h-4.54V593.7h4.36v.87h-3.32v2.56h3.14Z" transform="translate(-691.75 -475.18)"/><path d="M947.89,601.42a7.5,7.5,0,0,1-2.48.44,3.78,3.78,0,0,1-4.15-4.07,4.05,4.05,0,0,1,4.37-4.18,5.17,5.17,0,0,1,2,.37l-.25.85a4.23,4.23,0,0,0-1.79-.34,3,3,0,0,0-3.25,3.25,3,3,0,0,0,3.12,3.26,3.39,3.39,0,0,0,1.39-.22v-2.41h-1.64v-.84h2.66Z" transform="translate(-691.75 -475.18)"/><path d="M956.4,597.65c0,2.79-1.69,4.26-3.76,4.26s-3.63-1.65-3.63-4.1,1.59-4.25,3.75-4.25S956.4,595.25,956.4,597.65Zm-6.28.14c0,1.72.94,3.27,2.58,3.27s2.59-1.52,2.59-3.36c0-1.61-.84-3.28-2.58-3.28S950.12,596,950.12,597.79Z" transform="translate(-691.75 -475.18)"/><path d="M957.76,593.8a15.77,15.77,0,0,1,2.21-.16,4.65,4.65,0,0,1,3.28,1,3.74,3.74,0,0,1,1.14,2.91,4.26,4.26,0,0,1-1.17,3.14,5,5,0,0,1-3.57,1.16,16.84,16.84,0,0,1-1.89-.09Zm1,7.15a6.32,6.32,0,0,0,1.05.06,3.11,3.11,0,0,0,3.45-3.43c0-1.91-1.07-3.12-3.28-3.12a5.82,5.82,0,0,0-1.22.11Z" transform="translate(-691.75 -475.18)"/><path d="M975.2,597.65c0,2.79-1.69,4.26-3.75,4.26s-3.64-1.65-3.64-4.1,1.6-4.25,3.76-4.25S975.2,595.25,975.2,597.65Zm-6.27.14c0,1.72.93,3.27,2.58,3.27s2.59-1.52,2.59-3.36c0-1.61-.84-3.28-2.58-3.28S968.93,596,968.93,597.79Z" transform="translate(-691.75 -475.18)"/><path d="M976.56,593.7h4.35v.87H977.6v2.69h3.06v.86H977.6v3.66h-1Z" transform="translate(-691.75 -475.18)"/><path d="M984.8,600.51a3.68,3.68,0,0,0,1.87.53c1.07,0,1.7-.57,1.7-1.38s-.44-1.19-1.53-1.61c-1.32-.47-2.13-1.15-2.13-2.29a2.33,2.33,0,0,1,2.61-2.2,3.72,3.72,0,0,1,1.79.4l-.29.85a3.24,3.24,0,0,0-1.53-.38c-1.11,0-1.53.66-1.53,1.21,0,.75.49,1.13,1.61,1.56,1.37.53,2.06,1.19,2.06,2.37s-.92,2.33-2.83,2.33a4.13,4.13,0,0,1-2.06-.52Z" transform="translate(-691.75 -475.18)"/><path d="M992.4,594.58h-2.46v-.88h6v.88h-2.47v7.2H992.4Z" transform="translate(-691.75 -475.18)"/><path d="M999,601.78v-3.43l-2.55-4.65h1.18l1.14,2.23c.32.61.56,1.1.81,1.66h0c.23-.52.5-1.05.82-1.66l1.16-2.23h1.19l-2.71,4.64v3.44Z" transform="translate(-691.75 -475.18)"/><path d="M1003.57,593.7h1v7.2h3.46v.88h-4.5Z" transform="translate(-691.75 -475.18)"/><path d="M1013.42,598h-3.14v2.91h3.5v.88h-4.55V593.7h4.37v.87h-3.32v2.56h3.14Z" transform="translate(-691.75 -475.18)"/></g></svg>